<mxfile host="app.diagrams.net" modified="2023-08-12T09:41:53.888Z" agent="Mozilla/5.0 (Windows NT 10.0; Win64; x64) AppleWebKit/537.36 (KHTML, like Gecko) Chrome/115.0.0.0 Safari/537.36" etag="JFwu4AfPPhnn4zX29c1Z" version="21.6.8">
  <diagram name="Page-1" id="OnrWXaKWehOkGpQodPfL">
    <mxGraphModel dx="1005" dy="593" grid="1" gridSize="10" guides="1" tooltips="1" connect="1" arrows="1" fold="1" page="1" pageScale="1" pageWidth="850" pageHeight="1100" math="0" shadow="0">
      <root>
        <mxCell id="0" />
        <mxCell id="1" parent="0" />
        <mxCell id="p9ApoZqaagmPLe3sfg3k-1" value="" style="rounded=1;whiteSpace=wrap;html=1;" vertex="1" parent="1">
          <mxGeometry x="40" y="110" width="220" height="400" as="geometry" />
        </mxCell>
        <mxCell id="p9ApoZqaagmPLe3sfg3k-2" value="Get Product Info" style="rounded=1;whiteSpace=wrap;html=1;" vertex="1" parent="1">
          <mxGeometry x="97.5" y="300" width="105" height="30" as="geometry" />
        </mxCell>
        <mxCell id="p9ApoZqaagmPLe3sfg3k-4" value="Get Help" style="rounded=1;whiteSpace=wrap;html=1;" vertex="1" parent="1">
          <mxGeometry x="97.5" y="360" width="105" height="30" as="geometry" />
        </mxCell>
        <mxCell id="p9ApoZqaagmPLe3sfg3k-5" value="Proceed to Queue" style="rounded=1;whiteSpace=wrap;html=1;" vertex="1" parent="1">
          <mxGeometry x="97.5" y="420" width="105" height="30" as="geometry" />
        </mxCell>
        <mxCell id="p9ApoZqaagmPLe3sfg3k-7" value="Smart Mall Minds" style="shape=partialRectangle;whiteSpace=wrap;html=1;left=0;right=0;fillColor=none;" vertex="1" parent="1">
          <mxGeometry x="80" y="180" width="140" height="30" as="geometry" />
        </mxCell>
        <mxCell id="p9ApoZqaagmPLe3sfg3k-8" value="&lt;font style=&quot;font-size: 36px;&quot;&gt;/&lt;/font&gt;" style="text;html=1;strokeColor=none;fillColor=none;align=center;verticalAlign=middle;whiteSpace=wrap;rounded=0;" vertex="1" parent="1">
          <mxGeometry x="120" y="70" width="60" height="30" as="geometry" />
        </mxCell>
        <mxCell id="p9ApoZqaagmPLe3sfg3k-9" value="Walmart" style="text;html=1;strokeColor=none;fillColor=none;align=center;verticalAlign=middle;whiteSpace=wrap;rounded=0;" vertex="1" parent="1">
          <mxGeometry x="120" y="140" width="60" height="30" as="geometry" />
        </mxCell>
        <mxCell id="p9ApoZqaagmPLe3sfg3k-10" value="" style="endArrow=classic;html=1;rounded=0;" edge="1" parent="1" source="p9ApoZqaagmPLe3sfg3k-2">
          <mxGeometry width="50" height="50" relative="1" as="geometry">
            <mxPoint x="400" y="320" as="sourcePoint" />
            <mxPoint x="420" y="140" as="targetPoint" />
            <Array as="points">
              <mxPoint x="210" y="320" />
            </Array>
          </mxGeometry>
        </mxCell>
        <mxCell id="p9ApoZqaagmPLe3sfg3k-11" value="" style="endArrow=classic;html=1;rounded=0;" edge="1" parent="1">
          <mxGeometry width="50" height="50" relative="1" as="geometry">
            <mxPoint x="202.5" y="379" as="sourcePoint" />
            <mxPoint x="420" y="320" as="targetPoint" />
            <Array as="points">
              <mxPoint x="209.5" y="380" />
              <mxPoint x="320" y="320" />
            </Array>
          </mxGeometry>
        </mxCell>
        <mxCell id="p9ApoZqaagmPLe3sfg3k-12" value="" style="endArrow=classic;html=1;rounded=0;" edge="1" parent="1">
          <mxGeometry width="50" height="50" relative="1" as="geometry">
            <mxPoint x="202.5" y="439" as="sourcePoint" />
            <mxPoint x="360" y="550" as="targetPoint" />
            <Array as="points">
              <mxPoint x="209.5" y="440" />
              <mxPoint x="300" y="490" />
            </Array>
          </mxGeometry>
        </mxCell>
        <mxCell id="p9ApoZqaagmPLe3sfg3k-13" value="" style="rounded=1;whiteSpace=wrap;html=1;" vertex="1" parent="1">
          <mxGeometry x="440" y="50" width="110" height="180" as="geometry" />
        </mxCell>
        <mxCell id="p9ApoZqaagmPLe3sfg3k-14" value="/info" style="text;html=1;strokeColor=none;fillColor=none;align=center;verticalAlign=middle;whiteSpace=wrap;rounded=0;" vertex="1" parent="1">
          <mxGeometry x="460" y="10" width="60" height="30" as="geometry" />
        </mxCell>
        <mxCell id="p9ApoZqaagmPLe3sfg3k-15" value="" style="rounded=1;whiteSpace=wrap;html=1;" vertex="1" parent="1">
          <mxGeometry x="440" y="310" width="120" height="150" as="geometry" />
        </mxCell>
        <mxCell id="p9ApoZqaagmPLe3sfg3k-16" value="/beep" style="text;html=1;strokeColor=none;fillColor=none;align=center;verticalAlign=middle;whiteSpace=wrap;rounded=0;" vertex="1" parent="1">
          <mxGeometry x="465" y="270" width="60" height="30" as="geometry" />
        </mxCell>
        <mxCell id="p9ApoZqaagmPLe3sfg3k-17" value="" style="rounded=1;whiteSpace=wrap;html=1;" vertex="1" parent="1">
          <mxGeometry x="405" y="540" width="120" height="150" as="geometry" />
        </mxCell>
        <mxCell id="p9ApoZqaagmPLe3sfg3k-18" value="/queue" style="text;html=1;strokeColor=none;fillColor=none;align=center;verticalAlign=middle;whiteSpace=wrap;rounded=0;" vertex="1" parent="1">
          <mxGeometry x="425" y="500" width="60" height="30" as="geometry" />
        </mxCell>
        <mxCell id="p9ApoZqaagmPLe3sfg3k-19" value="&lt;font style=&quot;font-size: 24px;&quot;&gt;/info&lt;/font&gt;" style="text;html=1;strokeColor=none;fillColor=none;align=center;verticalAlign=middle;whiteSpace=wrap;rounded=0;" vertex="1" parent="1">
          <mxGeometry x="80" y="780" width="60" height="30" as="geometry" />
        </mxCell>
        <mxCell id="p9ApoZqaagmPLe3sfg3k-20" value="" style="rounded=1;whiteSpace=wrap;html=1;" vertex="1" parent="1">
          <mxGeometry x="50" y="830" width="120" height="240" as="geometry" />
        </mxCell>
        <mxCell id="p9ApoZqaagmPLe3sfg3k-21" value="react-webcam" style="rounded=0;whiteSpace=wrap;html=1;" vertex="1" parent="1">
          <mxGeometry x="70" y="870" width="80" height="80" as="geometry" />
        </mxCell>
        <mxCell id="p9ApoZqaagmPLe3sfg3k-22" value="&lt;font style=&quot;font-size: 8px;&quot;&gt;/handlesubmit()&lt;/font&gt;" style="rounded=1;whiteSpace=wrap;html=1;" vertex="1" parent="1">
          <mxGeometry x="75" y="990" width="70" height="30" as="geometry" />
        </mxCell>
        <mxCell id="p9ApoZqaagmPLe3sfg3k-23" value="" style="ellipse;whiteSpace=wrap;html=1;aspect=fixed;" vertex="1" parent="1">
          <mxGeometry x="462.5" y="337.5" width="75" height="75" as="geometry" />
        </mxCell>
        <mxCell id="p9ApoZqaagmPLe3sfg3k-24" value="" style="endArrow=classic;html=1;rounded=0;exitX=1;exitY=0.25;exitDx=0;exitDy=0;" edge="1" parent="1" source="p9ApoZqaagmPLe3sfg3k-22" target="p9ApoZqaagmPLe3sfg3k-25">
          <mxGeometry width="50" height="50" relative="1" as="geometry">
            <mxPoint x="400" y="930" as="sourcePoint" />
            <mxPoint x="480" y="960" as="targetPoint" />
            <Array as="points">
              <mxPoint x="160" y="1030" />
            </Array>
          </mxGeometry>
        </mxCell>
        <mxCell id="p9ApoZqaagmPLe3sfg3k-25" value="" style="rounded=1;whiteSpace=wrap;html=1;" vertex="1" parent="1">
          <mxGeometry x="420" y="810" width="120" height="260" as="geometry" />
        </mxCell>
        <mxCell id="p9ApoZqaagmPLe3sfg3k-26" value="&lt;font style=&quot;font-size: 24px;&quot;&gt;/info/&amp;lt;upc&amp;gt;&lt;/font&gt;" style="text;html=1;strokeColor=none;fillColor=none;align=center;verticalAlign=middle;whiteSpace=wrap;rounded=0;" vertex="1" parent="1">
          <mxGeometry x="440" y="760" width="60" height="30" as="geometry" />
        </mxCell>
        <mxCell id="p9ApoZqaagmPLe3sfg3k-27" value="uhcbcjnajc&lt;br&gt;&lt;br&gt;adnwna&lt;br&gt;cawbcubuwca&lt;br&gt;&lt;br&gt;cawjbuabwc" style="text;html=1;strokeColor=none;fillColor=none;align=center;verticalAlign=middle;whiteSpace=wrap;rounded=0;" vertex="1" parent="1">
          <mxGeometry x="450" y="860" width="60" height="30" as="geometry" />
        </mxCell>
        <mxCell id="p9ApoZqaagmPLe3sfg3k-28" value="" style="rounded=1;whiteSpace=wrap;html=1;" vertex="1" parent="1">
          <mxGeometry x="680" y="780" width="120" height="270" as="geometry" />
        </mxCell>
        <mxCell id="p9ApoZqaagmPLe3sfg3k-29" value="q1 -&amp;nbsp;&lt;br&gt;&lt;br&gt;&lt;br&gt;q2 -&amp;nbsp;&lt;br&gt;&lt;br&gt;&lt;br&gt;q3 -&amp;nbsp;&amp;nbsp;" style="text;html=1;strokeColor=none;fillColor=none;align=center;verticalAlign=middle;whiteSpace=wrap;rounded=0;" vertex="1" parent="1">
          <mxGeometry x="700" y="870" width="60" height="30" as="geometry" />
        </mxCell>
      </root>
    </mxGraphModel>
  </diagram>
</mxfile>
